<svg xmlns="http://www.w3.org/2000/svg" xmlns:xlink="http://www.w3.org/1999/xlink" version="1.1" x="0px" y="0px" viewBox="0 0 438.317 676.23875" style="enable-background:new 0 0 438.317 540.991;" xml:space="preserve"><g><path d="M419.499,5.233c-0.102-0.274-0.216-0.546-0.35-0.813c-1.979-3.95-6.784-5.55-10.735-3.57   c-3.038,1.518-5.895,3.147-8.582,4.864c-18.888,1.015-43.599,3.868-71.507,10.848c0.397,1.051,0.633,2.181,0.649,3.362   c0.025,1.584,0.11,3.136,0.226,4.671c22.158-5.609,42.287-8.563,59.021-10.038c-3.202,2.887-6.073,5.899-8.634,8.976   c4.801,2.824,8.537,7.229,10.548,12.414c5.938-7.736,14.098-15.093,25.443-20.793c0.975-0.488,1.806-1.149,2.475-1.928   c6.117,0.011,10.949,0.212,14.25,0.41c1.697,0.102,2.991,0.206,3.855,0.281c0.862,0.075,1.259,0.119,1.261,0.119l0.898-7.948   l-0.002-0.002C438.193,6.073,431.365,5.311,419.499,5.233z"/><path d="M187.924,85.207C97.217,156.657,13.863,290.919,0,540.546l7.988,0.444c13.867-248.1,96.263-379.61,184.888-449.5   c39.369-31.041,80.09-49.942,116.748-61.371c-0.314-2.635-0.518-5.366-0.602-8.192C271.12,33.543,228.84,52.968,187.924,85.207z"/><path d="M365.168,69.076c-0.195-0.018-0.388-0.035-0.58-0.057c-1.802-0.199-3.536-0.602-5.19-1.17   c-0.165,0.936-0.308,1.824-0.43,2.659c-1.14,0.378-2.231,0.931-3.262,1.635c0.994,0.729,1.939,1.382,2.811,1.958   c3.429,2.26,5.773,3.349,5.818,3.368c3.438,1.515,5.596,4.737,5.928,8.231c0.155,1.642-0.088,3.342-0.797,4.955   c-1.598,3.628-5.192,5.973-9.157,5.973c-1.389,0-2.744-0.285-4.023-0.851l-0.013-0.006l-0.086-0.04   c-1.489-0.682-4.962-2.406-9.415-5.407c-1.339,11.014-2.654,25.752-6.682,39.043c-6.569-1.592-14.857-3.168-23.565-3.189   c-7.361,0.064-15.345,0.994-22.889,5.824c-3.718,2.413-7.139,5.995-9.35,10.403c-2.24,4.401-3.252,9.404-3.245,14.548   c0.084,10.653,3.838,22.229,11.413,36.977c3.175,6.129,10.717,8.525,16.848,5.35c6.131-3.175,8.525-10.719,5.352-16.848   l-0.002-0.002c-6.655-12.723-8.693-21.386-8.61-25.477c0.009-2.01,0.36-2.868,0.538-3.232c0.291-0.458,0.322-0.687,1.941-1.401   c1.554-0.642,4.489-1.161,8.005-1.142c4.001-0.017,8.647,0.596,12.947,1.435c-2.324,6.427-4.016,14.727-4.003,24.989   c0.004,15.26,3.638,34.811,13.927,59.811c1.986,4.827,6.648,7.746,11.565,7.746c1.584,0,3.194-0.303,4.751-0.943   c6.385-2.629,9.431-9.934,6.802-16.317c-9.341-22.691-12.049-39.054-12.044-50.296c0.014-8.088,1.36-13.548,2.772-17.163   c6.142,0.096,12.434-2.471,17.502-11.584c9.351-20.316,12.037-33.252,11.828-54.541c-0.138-8.802-3.536-15.263-8.056-19.317   c0.22-1.897,0.592-4.397,1.216-7.314C372.399,68.907,368.811,69.393,365.168,69.076z"/><path d="M378.329,25.077c-2.713-1.529-5.783-2.522-9.088-2.809c-12.379-1.078-23.286,8.084-24.362,20.459   c-0.906,10.43,5.457,19.814,14.888,23.153c1.76,0.623,3.627,1.037,5.574,1.206c3.875,0.338,7.605-0.329,10.936-1.783   c7.307-3.191,12.685-10.176,13.425-18.678c0.266-3.059-0.096-6.027-0.975-8.78C386.999,32.432,383.264,27.86,378.329,25.077z"/><path d="M360.311,94.628c3.075,0,6.007-1.783,7.325-4.779c0.477-1.082,0.685-2.212,0.672-3.321   c-0.039-3.038-1.809-5.921-4.771-7.226h-0.002c-0.264-0.115-2.279-1.072-5.215-2.938c-1.265-0.805-2.7-1.783-4.244-2.935   c-2.874-2.145-6.112-4.895-9.303-8.311c-8.16-8.782-16.024-21.499-17.532-40.026c-0.136-1.672-0.239-3.373-0.267-5.142   c-0.015-1.025-0.227-2-0.592-2.896c-1.205-2.964-4.126-5.039-7.517-4.992c-4.417,0.061-7.949,3.693-7.888,8.11   c0.005,0.389,0.02,0.771,0.029,1.156c0.068,2.815,0.259,5.546,0.565,8.185c2.527,21.735,12.646,37.491,22.582,47.652   c4.537,4.661,9.022,8.234,12.811,10.863c5.666,3.933,9.768,5.751,10.127,5.918C358.14,94.41,359.234,94.628,360.311,94.628z"/></g><text x="0" y="555.991" fill="#000000" font-size="5px" font-weight="bold" font-family="'Helvetica Neue', Helvetica, Arial-Unicode, Arial, Sans-serif">Created by Gan Khoon Lay</text><text x="0" y="560.991" fill="#000000" font-size="5px" font-weight="bold" font-family="'Helvetica Neue', Helvetica, Arial-Unicode, Arial, Sans-serif">from the Noun Project</text></svg>